<?xml version="1.0" encoding="UTF-8" standalone="no"?>
<!-- Created with Inkscape (http://www.inkscape.org/) -->

<svg
   width="165.71252mm"
   height="190.74078mm"
   viewBox="0 0 165.71252 190.74078"
   version="1.1"
   id="svg5"
   xmlns="http://www.w3.org/2000/svg"
   xmlns:svg="http://www.w3.org/2000/svg">
  <defs
     id="defs2">
    <linearGradient
       id="linearGradient7237">
      <stop
         style="stop-color:#f2f2f2;stop-opacity:1;"
         offset="0"
         id="stop7235" />
    </linearGradient>
  </defs>
  <g
     id="layer1"
     transform="translate(-30.508697,-43.186511)">
    <path
       id="rect21394"
       style="fill:#d3f5ff;fill-opacity:1;stroke-width:0.401639"
       d="m 113.36466,43.186511 c -2.32608,0 -4.19871,4.315301 -4.19871,9.675379 v 4.186824 l -6.01979,-4.97489 c -0.29664,-0.245138 -0.60916,-0.429304 -0.92656,-0.555005 -0.0529,-0.02095 -0.1055,-0.04018 -0.15865,-0.05788 -1.32869,-0.442514 -2.720735,0.127388 -3.44578,1.557527 l -0.273886,0.539502 c -0.928059,1.830581 -0.401286,4.356854 1.180807,5.664254 l 9.643859,7.969539 v 9.442318 l -7.21972,-5.966044 c -1.58209,-1.3074 -3.602928,-0.885934 -4.530987,0.944645 l -0.273369,0.539502 c -0.928059,1.830579 -0.401803,4.356854 1.18029,5.664254 l 10.843786,8.960693 v 31.231691 a 20.993483,20.993483 0 0 0 -10.393684,5.48752 20.993483,20.993483 0 0 0 -1.099158,1.1529 L 70.621529,109.03107 68.283171,95.159566 c -0.341195,-2.023831 -2.265624,-3.742978 -4.314982,-3.854545 l -0.604098,-0.03307 c -2.049358,-0.111564 -3.424726,1.428153 -3.083533,3.451986 l 1.557011,9.236123 -8.177795,-4.72167 -2.07946,-12.337231 c -0.106623,-0.632449 -0.368133,-1.235194 -0.739489,-1.768368 -0.03714,-0.05332 -0.07543,-0.105725 -0.114722,-0.157613 -0.274974,-0.363102 -0.601593,-0.690403 -0.964799,-0.967899 h -5.17e-4 C 49.553286,83.848764 49.334001,83.706078 49.10553,83.582495 h -5.17e-4 c -0.05702,-0.03083 -0.114496,-0.06042 -0.172599,-0.08888 h -5.17e-4 c -0.465786,-0.228117 -0.96499,-0.378759 -1.474845,-0.431498 h -5.17e-4 c -0.06358,-0.0066 -0.127332,-0.01202 -0.191203,-0.0155 h -5.17e-4 l -0.60358,-0.03256 c -0.384256,-0.02092 -0.744889,0.01587 -1.07487,0.103352 -0.05484,0.01454 -0.109665,0.03078 -0.162781,0.04806 -0.106533,0.03468 -0.209278,0.0751 -0.308508,0.120406 -0.04947,0.02259 -0.09868,0.04671 -0.146245,0.07183 -0.09539,0.0504 -0.186562,0.105715 -0.273885,0.165881 -0.04355,0.03 -0.08671,0.06121 -0.128157,0.09354 -0.04144,0.03234 -0.08165,0.06618 -0.120923,0.100769 -0.03928,0.0346 -0.07819,0.07071 -0.115238,0.107487 -0.631291,0.626839 -0.934186,1.564987 -0.752926,2.640149 l 1.298112,7.700821 -3.625619,-2.092895 c -4.641961,-2.680038 -9.315394,-3.215914 -10.47843,-1.201477 -1.163036,2.014437 1.637758,5.793345 6.27972,8.473385 l 3.626136,2.093415 -7.318934,2.72645 c -0.0601,0.0224 -0.118624,0.046 -0.176216,0.0708 -0.115185,0.0495 -0.225248,0.10372 -0.330213,0.16226 -0.05248,0.0293 -0.104113,0.0596 -0.153995,0.091 -0.04976,0.0313 -0.09858,0.0638 -0.145728,0.0971 -0.377856,0.2672 -0.671246,0.59799 -0.872298,0.96842 -0.05028,0.0926 -0.0947,0.18798 -0.133325,0.28525 -0.07725,0.19455 -0.130998,0.3974 -0.160197,0.60617 -0.0146,0.10438 -0.02309,0.21044 -0.02532,0.31729 -0.0078,0.37397 0.06103,0.76046 0.211357,1.14463 0.02148,0.0549 0.04443,0.10961 0.06925,0.16433 0.07451,0.16433 0.164019,0.32756 0.269235,0.48886 l 0.330729,0.50643 v 5.2e-4 c 1.051217,1.61158 3.270756,2.42133 5.128886,1.92598 0.06194,-0.0165 0.123924,-0.0343 0.185001,-0.0537 0.06108,-0.0194 0.121282,-0.0401 0.181385,-0.0625 l 11.724349,-4.3677 8.177795,4.72116 -8.777242,3.26957 c -1.923288,0.71644 -2.568756,2.6771 -1.447457,4.39612 l 0.330212,0.50694 c 1.051218,1.61158 3.271275,2.42185 5.129403,1.9265 0.06194,-0.0165 0.123408,-0.0348 0.184485,-0.0543 0.06108,-0.0194 0.121798,-0.0401 0.181901,-0.0625 l 13.182658,-4.91029 27.068632,15.62798 a 20.993483,20.993483 0 0 0 -0.01085,13.25759 l -27.058297,15.62179 -13.182141,-4.91081 c -1.923288,-0.71644 -4.37449,0.0907 -5.495789,1.8097 l -0.330212,0.50695 c -1.121299,1.71902 -0.475831,3.67968 1.447457,4.39611 l 8.777242,3.26957 -8.177795,4.72116 -11.724349,-4.36717 c -0.0601,-0.0224 -0.120827,-0.0435 -0.181901,-0.0631 -0.06108,-0.0194 -0.122548,-0.0372 -0.184485,-0.0537 -1.85813,-0.49536 -4.077669,0.31494 -5.128886,1.92649 l -0.330729,0.50643 c -0.385448,0.59091 -0.562095,1.21068 -0.549838,1.79834 0.0022,0.10685 0.01072,0.2124 0.02532,0.31678 0.0292,0.20877 0.08295,0.41213 0.160197,0.60668 0.03862,0.0973 0.08305,0.1921 0.133325,0.28474 0.175974,0.32422 0.422688,0.6177 0.734839,0.86506 0.04459,0.0353 0.09021,0.0699 0.137459,0.10335 h 5.17e-4 c 0.236263,0.16703 0.505123,0.30922 0.805635,0.42117 l 7.318934,2.72645 -3.626136,2.09341 c -4.641962,2.68004 -7.442756,6.45946 -6.27972,8.4739 1.163036,2.01444 5.836469,1.47857 10.47843,-1.20148 l 3.625619,-2.09289 -1.298112,7.7003 c -0.170598,1.01192 0.08813,1.90256 0.645439,2.52646 0.03483,0.039 0.07087,0.0773 0.108003,0.11421 0.03713,0.0369 0.07535,0.0723 0.114722,0.10697 0.03937,0.0347 0.07937,0.0684 0.120923,0.10077 0.08319,0.0649 0.170465,0.12492 0.261999,0.18035 0.04571,0.0277 0.09235,0.0544 0.140043,0.0796 0.09551,0.0505 0.194568,0.0958 0.297657,0.13591 0.05147,0.02 0.103829,0.0385 0.157096,0.0558 0.372986,0.1215 0.789166,0.17583 1.237651,0.15141 l 0.60358,-0.0326 c 0.128086,-0.007 0.256169,-0.0201 0.382923,-0.0393 0.443483,-0.0672 0.876583,-0.20765 1.284159,-0.40721 0.116486,-0.0571 0.231182,-0.11909 0.343132,-0.18552 0.167804,-0.0996 0.330143,-0.20981 0.485758,-0.32866 0.0519,-0.0396 0.103108,-0.0803 0.153479,-0.12196 0.856298,-0.70782 1.484788,-1.69676 1.666048,-2.77192 l 2.07946,-12.33672 8.177795,-4.72167 -1.557011,9.23561 c -0.341193,2.02384 1.034175,3.56355 3.083533,3.45199 l 0.604098,-0.0331 c 2.049358,-0.11156 3.973787,-1.8307 4.314982,-3.85454 L 70.621535,168.08326 97.685,152.45837 a 20.993483,20.993483 0 0 0 0.590145,0.66043 20.993483,20.993483 0 0 0 10.890815,5.99757 v 31.22031 l -10.84379,8.9607 c -1.582093,1.3074 -2.108349,3.83367 -1.18029,5.66425 l 0.273369,0.54002 c 0.928059,1.83058 2.948901,2.25153 4.530991,0.94413 l 7.21972,-5.96605 v 9.44232 l -9.643863,7.96954 c -1.334892,1.10312 -1.918238,3.07396 -1.510502,4.7625 v 5.2e-4 c 0.0755,0.31252 0.184763,0.61535 0.329695,0.90123 l 0.273886,0.54002 c 0.232013,0.45765 0.532268,0.82681 0.876949,1.10329 0.08617,0.0691 0.174791,0.13277 0.266133,0.19017 1.004772,0.6315 2.300222,0.54951 3.387912,-0.34933 l 6.01979,-4.97489 v 4.18683 c 0,5.36006 1.87263,9.67537 4.19871,9.67537 0.14538,0 0.28897,-0.0167 0.43046,-0.0496 2.12236,-0.49368 3.76825,-4.6007 3.76825,-9.62576 v -4.18683 l 6.0203,4.97489 c 0.69201,0.57186 1.46815,0.81319 2.19987,0.75034 h 5.1e-4 c 0.0521,-0.004 0.10446,-0.011 0.15607,-0.0186 0.0516,-0.008 0.10297,-0.0168 0.15399,-0.0274 0.0512,-0.0107 0.10246,-0.0224 0.15296,-0.0362 0.25251,-0.0686 0.49564,-0.17532 0.72399,-0.31885 0.0913,-0.0574 0.18048,-0.12104 0.26665,-0.19017 0.34458,-0.2764 0.64496,-0.64583 0.87695,-1.10329 v -5.1e-4 l 0.27337,-0.53951 c 0.0289,-0.0571 0.0566,-0.11475 0.0827,-0.17311 v -5.2e-4 c 0.10463,-0.23387 0.18714,-0.47762 0.24753,-0.7276 v -5.2e-4 c 0.0604,-0.24999 0.0991,-0.50618 0.11679,-0.76481 v -5.2e-4 c 0.10164,-1.48814 -0.49016,-3.05747 -1.62729,-3.99717 l -9.64437,-7.96954 v -9.44232 l 7.21971,5.96605 c 1.5821,1.3074 3.60293,0.88645 4.53099,-0.94413 l 0.27389,-0.54002 c 0.92806,-1.83058 0.40129,-4.35685 -1.18081,-5.66425 l -10.84378,-8.96121 v -31.21825 a 20.993483,20.993483 0 0 0 10.33218,-5.37797 l 0.25322,-0.24546 a 20.993483,20.993483 0 0 0 0.95033,-1.00511 l 27.00868,15.59388 2.33888,13.87099 c 0.34119,2.02384 2.26562,3.74298 4.31498,3.85454 l 0.6041,0.0331 c 2.04936,0.11156 3.42419,-1.42815 3.08302,-3.45199 l -1.55702,-9.23509 8.1778,4.72115 2.07998,12.33672 c 0.3092,1.8341 1.91852,3.41779 3.74292,3.78168 0.12582,0.0251 0.25283,0.0447 0.38034,0.0579 0.0637,0.007 0.12768,0.0115 0.19172,0.015 l 0.6041,0.0326 c 1.47295,0.0802 2.59746,-0.69216 2.98689,-1.88464 0.0339,-0.10369 0.0623,-0.21064 0.0848,-0.32039 0.0675,-0.32927 0.0828,-0.68476 0.0388,-1.05834 -0.007,-0.0623 -0.0162,-0.12485 -0.0269,-0.1881 l -1.29811,-7.70082 3.62562,2.09341 c 4.64195,2.68005 9.31539,3.21592 10.47843,1.20148 1.16301,-2.01444 -1.63777,-5.79386 -6.27972,-8.4739 l -3.62614,-2.09341 7.31842,-2.72645 c 0.72123,-0.26867 1.26277,-0.71239 1.59887,-1.25264 0.056,-0.09 0.10641,-0.18246 0.15089,-0.2775 0.13344,-0.28514 0.21445,-0.59135 0.23978,-0.90847 0.008,-0.10571 0.011,-0.21259 0.007,-0.3204 -0.0142,-0.37733 -0.10582,-0.76516 -0.27957,-1.14825 -0.0745,-0.16418 -0.16359,-0.3277 -0.26871,-0.48886 l -0.33073,-0.50643 c -0.31529,-0.48335 -0.73581,-0.89503 -1.22008,-1.22059 h -5.2e-4 c -0.48427,-0.32551 -1.03236,-0.56537 -1.603,-0.7059 h -5.2e-4 c -0.88792,-0.21858 -1.83023,-0.19666 -2.67167,0.11679 l -11.72383,4.36717 -8.1778,-4.72116 8.77724,-3.26957 c 1.92328,-0.71643 2.56876,-2.67709 1.44746,-4.39611 l -0.33073,-0.50695 c -1.12129,-1.71899 -3.57198,-2.52614 -5.49527,-1.8097 l -13.18214,4.91081 -27.00352,-15.59027 a 20.993483,20.993483 0 0 0 -5.2e-4,-13.32735 l 27.003,-15.58974 13.18266,4.91029 c 0.84144,0.31344 1.78375,0.33537 2.67167,0.11679 0.0634,-0.0156 0.12633,-0.0326 0.18914,-0.0506 1.06777,-0.3068 2.03877,-0.96263 2.63446,-1.87586 l 0.33073,-0.50694 c 1.1213,-1.71902 0.47582,-3.67968 -1.44745,-4.39612 l -8.77725,-3.26957 8.17728,-4.72116 2.66599,0.99323 9.05836,3.37447 c 0.0601,0.0224 0.12083,0.0431 0.1819,0.0625 0.794,0.25261 1.66579,0.25674 2.49029,0.0537 0.0634,-0.0156 0.12633,-0.0321 0.18914,-0.0501 1.06763,-0.30676 2.03875,-0.96281 2.63446,-1.87585 v -5.2e-4 l 0.33073,-0.50643 c 0.10512,-0.16116 0.19425,-0.32468 0.26872,-0.48886 0.0248,-0.0547 0.0483,-0.10945 0.0698,-0.16433 0.0429,-0.10976 0.0793,-0.21986 0.10904,-0.32969 0.0149,-0.0549 0.0282,-0.10953 0.0398,-0.16433 0.12776,-0.60282 0.0591,-1.19601 -0.18552,-1.71876 -0.0445,-0.0951 -0.0949,-0.18746 -0.15089,-0.2775 -0.3361,-0.54025 -0.87764,-0.98398 -1.59887,-1.25264 l -7.31842,-2.72593 3.62614,-2.093935 c 4.64195,-2.68004 7.44273,-6.458948 6.27972,-8.473385 -1.16304,-2.014437 -5.83648,-1.478561 -10.47843,1.201477 l -3.62614,2.093412 1.29863,-7.701338 c 0.0746,-0.442715 0.0668,-0.862288 -0.0119,-1.246436 -0.0225,-0.109757 -0.0508,-0.216183 -0.0848,-0.319877 -0.38943,-1.192476 -1.51394,-1.965345 -2.98689,-1.885156 l -0.6041,0.03256 c -1.3449,0.07322 -2.63612,0.838933 -3.46129,1.928564 -0.0393,0.05189 -0.0776,0.104296 -0.11472,0.157613 -0.37149,0.533259 -0.63233,1.135783 -0.73897,1.768368 l -2.07998,12.337231 -8.1778,4.721162 1.55702,-9.235615 c 0.34117,-2.023833 -1.03366,-3.56355 -3.08302,-3.451986 l -0.6041,0.03307 c -2.04936,0.111567 -3.97379,1.830714 -4.31498,3.854545 l -2.33888,13.871506 -27.00713,15.59285 a 20.993483,20.993483 0 0 0 -0.70384,-0.75551 20.993483,20.993483 0 0 0 -10.83344,-5.88646 V 86.777649 l 10.84378,-8.96121 c 1.5821,-1.3074 2.10887,-3.833675 1.18081,-5.664254 l -0.27389,-0.539502 c -0.92806,-1.830579 -2.94889,-2.252045 -4.53099,-0.944645 l -7.21971,5.966044 v -9.442318 l 9.64437,-7.969539 c 1.5821,-1.3074 2.10835,-3.833673 1.18029,-5.664254 l -0.27337,-0.539502 c -0.46394,-0.915106 -1.20125,-1.478177 -2.02003,-1.648995 h -5.2e-4 c -0.1022,-0.0213 -0.20568,-0.03647 -0.31006,-0.04547 h -5.1e-4 c -0.73187,-0.06301 -1.5077,0.177839 -2.19987,0.749825 l -6.0203,4.97489 V 52.86189 c 0,-5.360078 -1.87266,-9.675379 -4.19871,-9.675379 z m -0.27854,82.778409 a 12.59609,12.59609 0 0 1 9.31054,3.7791 12.59609,12.59609 0 0 1 -0.14882,17.77566 l -0.15142,0.14728 a 12.59609,12.59609 0 0 1 -17.77255,-0.37311 12.59609,12.59609 0 0 1 0.29817,-17.77359 12.59609,12.59609 0 0 1 8.46408,-3.55534 z" />
  </g>
</svg>
