<?xml version="1.0" encoding="UTF-8" standalone="no"?>
<!-- Created with Inkscape (http://www.inkscape.org/) -->

<svg
   width="174.03377mm"
   height="144.92166mm"
   viewBox="0 0 174.03377 144.92166"
   version="1.1"
   id="svg5"
   xmlns:xlink="http://www.w3.org/1999/xlink"
   xmlns="http://www.w3.org/2000/svg"
   xmlns:svg="http://www.w3.org/2000/svg">
  <defs
     id="defs2">
    <linearGradient
       id="linearGradient7249">
      <stop
         style="stop-color:#f2f2f2;stop-opacity:1;"
         offset="0.70189703"
         id="stop7245" />
      <stop
         style="stop-color:#f2f2f2;stop-opacity:0.84331805;"
         offset="1"
         id="stop7247" />
    </linearGradient>
    <linearGradient
       id="linearGradient7237">
      <stop
         style="stop-color:#f2f2f2;stop-opacity:1;"
         offset="0"
         id="stop7235" />
    </linearGradient>
    <linearGradient
       id="linearGradient5247">
      <stop
         style="stop-color:#f2f2f2;stop-opacity:1;"
         offset="0.5799458"
         id="stop5243" />
      <stop
         style="stop-color:#f2f2f2;stop-opacity:0.88018435;"
         offset="1"
         id="stop5245" />
    </linearGradient>
    <linearGradient
       id="linearGradient5239">
      <stop
         style="stop-color:#f2f2f2;stop-opacity:1;"
         offset="0.54933167"
         id="stop5235" />
      <stop
         style="stop-color:#f2f2f2;stop-opacity:0.93000001;"
         offset="1"
         id="stop5237" />
    </linearGradient>
    <linearGradient
       id="linearGradient4697">
      <stop
         style="stop-color:#ffd738;stop-opacity:1;"
         offset="0"
         id="stop4693" />
      <stop
         style="stop-color:#ffb129;stop-opacity:1;"
         offset="0.53265005"
         id="stop4703" />
    </linearGradient>
    <radialGradient
       xlink:href="#linearGradient4697"
       id="radialGradient4701"
       cx="105.62331"
       cy="130.23457"
       fx="105.62331"
       fy="130.23457"
       r="98.44503"
       gradientUnits="userSpaceOnUse"
       gradientTransform="matrix(0.98299998,0.00258969,-0.00249979,0.94886979,33.246417,29.478376)" />
    <radialGradient
       xlink:href="#linearGradient5239"
       id="radialGradient5241"
       cx="76.976471"
       cy="168.34421"
       fx="76.976471"
       fy="168.34421"
       r="42.839081"
       gradientTransform="matrix(0.8359375,0,0,0.85937499,2.2538627,35.387216)"
       gradientUnits="userSpaceOnUse" />
    <radialGradient
       xlink:href="#linearGradient5247"
       id="radialGradient5249"
       cx="139.49852"
       cy="174.03375"
       fx="139.49852"
       fy="174.03375"
       r="32.400845"
       gradientTransform="matrix(1,0,0,0.97096073,6.6936068,23.126552)"
       gradientUnits="userSpaceOnUse" />
    <radialGradient
       xlink:href="#linearGradient7249"
       id="radialGradient7259"
       cx="110.10981"
       cy="163.99338"
       fx="110.10981"
       fy="163.99338"
       r="31.125271"
       gradientTransform="matrix(1,0,0,1.1182796,-2.0080819,-14.711544)"
       gradientUnits="userSpaceOnUse" />
    <radialGradient
       xlink:href="#linearGradient5247"
       id="radialGradient453"
       gradientUnits="userSpaceOnUse"
       gradientTransform="matrix(1,0,0,0.97096073,-35.476112,45.215453)"
       cx="139.49852"
       cy="174.03375"
       fx="139.49852"
       fy="174.03375"
       r="32.400845" />
  </defs>
  <g
     id="layer1"
     transform="translate(-16.064657,-102.07241)">
    <path
       style="fill:url(#radialGradient4701);fill-opacity:1;stroke-width:0.137753"
       id="path1762"
       d="m 188.00377,153.32756 a 51.255192,51.255146 0 0 1 -51.03994,51.25469 51.255192,51.255146 0 0 1 -51.468633,-50.8242 51.255192,51.255146 0 0 1 50.607663,-51.68157 51.255192,51.255146 0 0 1 51.89368,50.39014" />
    <rect
       style="fill:#f2f2f2;fill-opacity:0.99000001;stroke-width:0.264583"
       id="rect4861"
       width="174.03377"
       height="73.629669"
       x="16.064657"
       y="173.36441"
       ry="36.814835"
       rx="54.887573" />
    <path
       style="fill:url(#radialGradient5241);fill-opacity:1;stroke-width:0.308277"
       id="path5227"
       d="M 102.41217,180.05801 A 35.810795,36.814835 0 0 1 66.751766,216.87252 35.810795,36.814835 0 0 1 30.791848,180.36722 35.810795,36.814835 0 0 1 66.150229,143.2461 35.810795,36.814835 0 0 1 102.40712,179.43963" />
    <path
       style="fill:url(#radialGradient7259);fill-opacity:1;stroke-width:0.264583"
       id="path5229"
       d="m 139.227,168.67891 a 31.125271,34.806755 0 0 1 -30.99456,34.80645 31.125271,34.806755 0 0 1 -31.254883,-34.51411 31.125271,34.806755 0 0 1 30.732053,-35.09633 31.125271,34.806755 0 0 1 31.513,34.21933" />
    <path
       style="fill:url(#radialGradient5249);fill-opacity:1;stroke-width:0.258413"
       id="path5231"
       d="m 178.59297,192.10651 a 32.400845,31.459948 0 0 1 -32.26478,31.45967 32.400845,31.459948 0 0 1 -32.53577,-31.19544 32.400845,31.459948 0 0 1 31.99151,-31.72168 32.400845,31.459948 0 0 1 32.80447,30.92901" />
    <path
       style="fill:url(#radialGradient453);fill-opacity:1;stroke-width:0.258413"
       id="path451"
       d="m 136.42325,214.19542 a 32.400845,31.459948 0 0 1 -32.26478,31.45967 32.400845,31.459948 0 0 1 -32.535764,-31.19544 32.400845,31.459948 0 0 1 31.991514,-31.72168 32.400845,31.459948 0 0 1 32.80446,30.92901" />
  </g>
</svg>
