<?xml version="1.0" encoding="UTF-8" standalone="no"?>
<!-- Created with Inkscape (http://www.inkscape.org/) -->

<svg
   width="198.65305mm"
   height="193.31406mm"
   viewBox="0 0 198.65305 193.31406"
   version="1.1"
   id="svg5"
   xmlns:xlink="http://www.w3.org/1999/xlink"
   xmlns="http://www.w3.org/2000/svg"
   xmlns:svg="http://www.w3.org/2000/svg">
  <defs
     id="defs2">
    <linearGradient
       id="linearGradient7237">
      <stop
         style="stop-color:#f2f2f2;stop-opacity:1;"
         offset="0"
         id="stop7235" />
    </linearGradient>
    <linearGradient
       id="linearGradient4697">
      <stop
         style="stop-color:#f7f7f7;stop-opacity:1;"
         offset="0"
         id="stop4693" />
      <stop
         style="stop-color:#fafafa;stop-opacity:1;"
         offset="0.53265005"
         id="stop4703" />
    </linearGradient>
    <radialGradient
       xlink:href="#linearGradient4697"
       id="radialGradient4701"
       cx="105.62331"
       cy="130.23457"
       fx="105.62331"
       fy="130.23457"
       r="98.44503"
       gradientUnits="userSpaceOnUse"
       gradientTransform="matrix(1.1822534,-0.35026473,0.33810337,1.1412051,-24.944658,-11.824717)" />
  </defs>
  <g
     id="layer1"
     transform="translate(-9.2613461,-40.497246)">
    <path
       id="path1762"
       style="fill:url(#radialGradient4701);fill-opacity:1;stroke-width:0.172793"
       d="m 119.21824,40.497246 a 64.29284,64.292896 73.346146 0 0 -36.695583,78.248534 64.29284,64.292896 73.346146 0 0 80.123283,42.57591 64.29284,64.292896 73.346146 0 0 45.26845,-55.21345 55.910673,55.910723 73.346146 0 1 -33.40018,27.85681 55.910673,55.910723 73.346146 0 1 -69.67722,-37.025116 55.910673,55.910723 73.346146 0 1 14.38125,-56.442688 z" />
    <path
       id="rect4861"
       style="fill:#dedede;fill-opacity:0.976109;stroke-width:0.264583"
       d="m 100.90639,120.6921 a 31.125271,34.806755 0 0 0 -24.332874,13.68134 35.810795,36.814835 0 0 0 -17.22634,-4.31033 35.810795,36.814835 0 0 0 -35.35856,37.12125 35.810795,36.814835 0 0 0 0.32143,4.44003 c -9.33467,6.59415 -15.0486999,15.51914 -15.0486999,25.3721 0,20.3954 24.4799199,36.81481 54.8876099,36.81481 h 64.258604 c 30.40768,0 54.8876,-16.41941 54.8876,-36.81481 0,-8.69297 -4.44948,-16.66256 -11.90728,-22.94744 a 32.400845,31.459948 0 0 0 -32.40732,-26.58287 32.400845,31.459948 0 0 0 -7.2409,0.88883 31.125271,34.806755 0 0 0 -30.83327,-27.66291 z" />
    <path
       style="fill:#f7f7f7;fill-opacity:1;stroke-width:0.264583"
       id="path26925"
       d="m 159.72822,107.41956 c -23.39479,38.28238 11.19396,29.93337 -27.08842,6.53858 -38.28238,-23.394787 -29.93337,11.19397 -6.53858,-27.088411 23.39479,-38.282382 -11.19397,-29.933373 27.08842,-6.538581 38.28238,23.394792 29.93337,-11.193968 6.53858,27.088412 z"
       transform="matrix(0.34543804,0.07498675,-0.06373857,0.40639876,17.466715,15.116347)" />
    <path
       style="fill:#f7f7f7;fill-opacity:1;stroke-width:0.264583"
       id="path29105"
       d="m 159.72822,107.41956 c -23.39479,38.28238 11.19396,29.93337 -27.08842,6.53858 -38.28238,-23.394787 -29.93337,11.19397 -6.53858,-27.088411 23.39479,-38.282382 -11.19397,-29.933373 27.08842,-6.538581 38.28238,23.394792 29.93337,-11.193968 6.53858,27.088412 z"
       transform="matrix(0.45640503,0.10507828,-0.08421367,0.56948304,-14.66509,31.056765)" />
    <path
       style="fill:#f7f7f7;fill-opacity:1;stroke-width:0.264583"
       id="path30559"
       d="m 159.72822,107.41956 c -23.39479,38.28238 11.19396,29.93337 -27.08842,6.53858 -38.28238,-23.394787 -29.93337,11.19397 -6.53858,-27.088411 23.39479,-38.282382 -11.19397,-29.933373 27.08842,-6.538581 38.28238,23.394792 29.93337,-11.193968 6.53858,27.088412 z"
       transform="matrix(0.24135013,0.05556611,-0.04453277,0.30114655,-6.2983253,28.700886)" />
  </g>
</svg>
