<?xml version="1.0" encoding="UTF-8" standalone="no"?>
<!-- Created with Inkscape (http://www.inkscape.org/) -->

<svg
   width="188.14134mm"
   height="216.66731mm"
   viewBox="0 0 188.14134 216.66731"
   version="1.1"
   id="svg5"
   xmlns:xlink="http://www.w3.org/1999/xlink"
   xmlns="http://www.w3.org/2000/svg"
   xmlns:svg="http://www.w3.org/2000/svg">
  <defs
     id="defs2">
    <linearGradient
       id="linearGradient7237">
      <stop
         style="stop-color:#f2f2f2;stop-opacity:1;"
         offset="0"
         id="stop7235" />
    </linearGradient>
    <linearGradient
       id="linearGradient4697">
      <stop
         style="stop-color:#f7f7f7;stop-opacity:1;"
         offset="0"
         id="stop4693" />
      <stop
         style="stop-color:#fafafa;stop-opacity:1;"
         offset="0.53265005"
         id="stop4703" />
    </linearGradient>
    <radialGradient
       xlink:href="#linearGradient4697"
       id="radialGradient4701"
       cx="105.62331"
       cy="130.23457"
       fx="105.62331"
       fy="130.23457"
       r="98.44503"
       gradientUnits="userSpaceOnUse"
       gradientTransform="matrix(1.0245641,-0.30354633,0.29300705,0.98899086,-1.3585209,-41.275242)" />
    <linearGradient
       xlink:href="#linearGradient5247"
       id="linearGradient16393"
       x1="90.363686"
       y1="181.06207"
       x2="128.51726"
       y2="51.875465"
       gradientUnits="userSpaceOnUse"
       gradientTransform="matrix(0.86661973,0,0,0.86661973,-1.0414819,21.179682)" />
    <linearGradient
       id="linearGradient5247">
      <stop
         style="stop-color:#f2f2f2;stop-opacity:1;"
         offset="0.14073905"
         id="stop5243" />
      <stop
         style="stop-color:#f2f2f2;stop-opacity:0.77880186;"
         offset="1"
         id="stop5245" />
    </linearGradient>
  </defs>
  <g
     id="layer1"
     transform="translate(-12.300389,-4.0680029)">
    <path
       id="path1762"
       style="fill:url(#radialGradient4701);fill-opacity:1;stroke-width:0.149746"
       d="M 123.57589,4.0680029 A 55.717444,55.717492 73.346146 0 0 91.774775,71.879727 55.717444,55.717492 73.346146 0 0 161.2112,108.77685 55.717444,55.717492 73.346146 0 0 200.44173,60.927785 48.453292,48.453336 73.346146 0 1 171.49648,85.069048 48.453292,48.453336 73.346146 0 1 111.11282,52.98235 48.453292,48.453336 73.346146 0 1 123.57589,4.0680029 Z" />
    <path
       id="rect4861"
       style="fill:#dedede;fill-opacity:0.976109;stroke-width:0.229293"
       d="M 107.70649,73.566446 A 26.973774,30.164221 0 0 0 86.619132,85.422968 31.034342,31.904462 0 0 0 71.690446,81.687548 31.034342,31.904462 0 0 0 41.04802,113.85756 a 31.034342,31.904462 0 0 0 0.278558,3.84782 c -8.089609,5.71462 -13.041501,13.44919 -13.041501,21.98796 0,17.67505 21.214782,31.90444 47.566686,31.90444 h 55.687777 c 26.3519,0 47.56668,-14.22939 47.56668,-31.90444 0,-7.5335 -3.85601,-14.4401 -10.31908,-19.88671 a 28.079212,27.263812 0 0 0 -28.08483,-23.037242 28.079212,27.263812 0 0 0 -6.2751,0.77028 26.973774,30.164221 0 0 0 -26.72072,-23.973222 z" />
    <path
       style="fill:#f7f7f7;fill-opacity:1;stroke-width:0.264583"
       id="path26925"
       d="m 159.72822,107.41956 c -23.39479,38.28238 11.19396,29.93337 -27.08842,6.53858 -38.28238,-23.394787 -29.93337,11.19397 -6.53858,-27.088411 23.39479,-38.282382 -11.19397,-29.933373 27.08842,-6.538581 38.28238,23.394792 29.93337,-11.193968 6.53858,27.088412 z"
       transform="matrix(0.29936342,0.064985,-0.0552371,0.35219318,35.396012,-17.927585)" />
    <path
       style="fill:#f7f7f7;fill-opacity:1;stroke-width:0.264583"
       id="path29105"
       d="m 159.72822,107.41956 c -23.39479,38.28238 11.19396,29.93337 -27.08842,6.53858 -38.28238,-23.394787 -29.93337,11.19397 -6.53858,-27.088411 23.39479,-38.282382 -11.19397,-29.933373 27.08842,-6.538581 38.28238,23.394792 29.93337,-11.193968 6.53858,27.088412 z"
       transform="matrix(0.3955296,0.09106291,-0.07298123,0.49352524,7.5499561,-4.1133041)" />
    <path
       style="fill:#f7f7f7;fill-opacity:1;stroke-width:0.264583"
       id="path30559"
       d="m 159.72822,107.41956 c -23.39479,38.28238 11.19396,29.93337 -27.08842,6.53858 -38.28238,-23.394787 -29.93337,11.19397 -6.53858,-27.088411 23.39479,-38.282382 -11.19397,-29.933373 27.08842,-6.538581 38.28238,23.394792 29.93337,-11.193968 6.53858,27.088412 z"
       transform="matrix(0.20915878,0.04815469,-0.03859298,0.26097954,14.800759,-6.1549551)" />
    <path
       id="path14205"
       style="fill:#cccccc;fill-opacity:1;stroke-width:0.223946"
       d="m 168.81283,123.85405 a 28.079212,27.263812 0 0 1 -27.96128,27.26357 28.079212,27.263812 0 0 1 -28.19615,-27.03458 28.079212,27.263812 0 0 1 27.72448,-27.490632 28.079212,27.263812 0 0 1 28.42899,26.803692 m -34.11135,-19.84486 a 26.973774,30.164221 0 0 1 -26.8605,30.16395 26.973774,30.164221 0 0 1 -27.086108,-29.9106 26.973774,30.164221 0 0 1 26.633008,-30.415186 26.973774,30.164221 0 0 1 27.30979,29.655146 m -31.90066,10.36804 A 31.034342,31.904462 0 0 1 71.889032,145.31677 31.034342,31.904462 0 0 1 40.725456,113.68055 31.034342,31.904462 0 0 1 71.367725,81.510658 31.034342,31.904462 0 0 1 102.78867,112.87668 m -27.259437,-5.26489 h 55.687797 c 26.35193,0 47.56666,14.22938 47.56666,31.90445 0,17.67507 -21.21473,31.90446 -47.56666,31.90446 H 75.529233 c -26.35193,0 -47.566651,-14.22939 -47.566651,-31.90446 0,-17.67507 21.214721,-31.90445 47.566651,-31.90445 z" />
    <path
       id="path14193"
       style="fill:url(#linearGradient16393);fill-opacity:1;stroke-width:0.223946"
       d="m 153.15064,131.97519 a 28.079212,27.263812 0 0 1 -27.96129,27.26357 28.079212,27.263812 0 0 1 -28.196143,-27.03458 28.079212,27.263812 0 0 1 27.724483,-27.49064 28.079212,27.263812 0 0 1 28.42899,26.80369 m -34.11136,-19.84486 a 26.973774,30.164221 0 0 1 -26.860501,30.16395 26.973774,30.164221 0 0 1 -27.0861,-29.9106 26.973774,30.164221 0 0 1 26.633005,-30.415182 26.973774,30.164221 0 0 1 27.309786,29.655152 M 87.130854,121.53373 A 31.034342,31.904462 0 0 1 56.226839,153.43791 31.034342,31.904462 0 0 1 25.063263,121.80169 31.034342,31.904462 0 0 1 55.705532,89.631798 31.034342,31.904462 0 0 1 87.126477,120.99782 m -27.259437,-5.2649 h 55.6878 c 26.35193,0 47.56666,14.22939 47.56666,31.90445 0,17.67508 -21.21473,31.90447 -47.56666,31.90447 h -55.6878 c -26.351921,0 -47.566651,-14.22939 -47.566651,-31.90447 0,-17.67506 21.21473,-31.90445 47.566651,-31.90445 z" />
    <rect
       style="fill:#e6e6e6;fill-opacity:1;stroke:#000000;stroke-width:0;stroke-dasharray:none;stroke-opacity:1"
       id="rect11493"
       width="4.0605702"
       height="17.40243"
       x="143.99391"
       y="138.88005"
       rx="0"
       ry="6.8198705"
       transform="rotate(21.720429)" />
    <rect
       style="fill:#e6e6e6;fill-opacity:1;stroke:#000000;stroke-width:0;stroke-dasharray:none;stroke-opacity:1"
       id="rect11538"
       width="4.0605702"
       height="17.40243"
       x="123.73497"
       y="144.45279"
       rx="0"
       ry="6.8198705"
       transform="rotate(21.720429)" />
    <rect
       style="fill:#e6e6e6;fill-opacity:1;stroke:#000000;stroke-width:0;stroke-dasharray:none;stroke-opacity:1"
       id="rect11542"
       width="4.0605702"
       height="17.40243"
       x="133.61444"
       y="166.11816"
       rx="0"
       ry="6.8198705"
       transform="rotate(21.720429)" />
    <rect
       style="fill:#e6e6e6;fill-opacity:1;stroke:#000000;stroke-width:0;stroke-dasharray:none;stroke-opacity:1"
       id="rect11544"
       width="4.0605702"
       height="17.40243"
       x="113.14523"
       y="168.02815"
       rx="0"
       ry="6.8198705"
       transform="rotate(21.720429)" />
    <rect
       style="fill:#e6e6e6;fill-opacity:1;stroke:#000000;stroke-width:0;stroke-dasharray:none;stroke-opacity:1"
       id="rect11546"
       width="4.0605702"
       height="17.40243"
       x="162.10168"
       y="131.04221"
       rx="0"
       ry="6.8198705"
       transform="rotate(21.720429)" />
    <rect
       style="fill:#e6e6e6;fill-opacity:1;stroke-width:0;stroke-dasharray:none"
       id="rect11548"
       width="4.0605702"
       height="17.40243"
       x="100.13751"
       y="149.48221"
       rx="0"
       ry="6.8198705"
       transform="rotate(21.720429)" />
    <rect
       style="fill:#e6e6e6;fill-opacity:1;stroke:#000000;stroke-width:0;stroke-dasharray:none;stroke-opacity:1"
       id="rect12284"
       width="4.0605702"
       height="17.40243"
       x="157.65007"
       y="155.91888"
       rx="0"
       ry="6.8198705"
       transform="rotate(21.720429)" />
    <rect
       style="fill:#e6e6e6;fill-opacity:1;stroke:#000000;stroke-width:0;stroke-dasharray:none;stroke-opacity:1"
       id="rect13014"
       width="4.0605702"
       height="17.40243"
       x="180.74837"
       y="122.98968"
       rx="0"
       ry="6.8198705"
       transform="rotate(21.720429)" />
    <rect
       style="fill:#e6e6e6;fill-opacity:1;stroke:#000000;stroke-width:0;stroke-dasharray:none;stroke-opacity:1"
       id="rect13018"
       width="4.0605702"
       height="17.40243"
       x="175.8674"
       y="146.78854"
       rx="0"
       ry="6.8198705"
       transform="rotate(21.720429)" />
  </g>
</svg>
